<svg width="256" height="256" viewBox="0 0 24 24" xmlns="http://www.w3.org/2000/svg" fill="none">
  <!-- Simplified Brain Icon -->
  <path d="M15.5 13a3.5 3.5 0 0 0 -3.5 3.5v1a3.5 3.5 0 0 0 7 0v-1.8" stroke="purple" fill="purple" stroke-width="0.5" stroke-linecap="round" stroke-linejoin="round" />
  <path d="M8.5 13a3.5 3.5 0 0 1 3.5 3.5v1a3.5 3.5 0 0 1 -7 0v-1.8" stroke="purple" fill="purple" stroke-width="0.5" stroke-linecap="round" stroke-linejoin="round" />
  <path d="M17.5 16a3.5 3.5 0 0 0 0 -7h-.5" stroke="purple" fill="purple" stroke-width="0.5" stroke-linecap="round" stroke-linejoin="round" />
  <path d="M19 9.3v-2.8a3.5 3.5 0 0 0 -7 0" stroke="purple" fill="purple" stroke-width="0.5" stroke-linecap="round" stroke-linejoin="round" />
  <path d="M6.5 16a3.5 3.5 0 0 1 0 -7h.5" stroke="purple" fill="purple" stroke-width="0.5" stroke-linecap="round" stroke-linejoin="round" />
  <path d="M5 9.3v-2.8a3.5 3.5 0 0 1 7 0v10" stroke="purple" fill="purple" stroke-width="0.5" stroke-linecap="round" stroke-linejoin="round" />
</svg>